<mxfile host="app.diagrams.net" modified="2023-05-27T07:01:19.058Z" agent="Mozilla/5.0 (Windows NT 10.0; Win64; x64) AppleWebKit/537.36 (KHTML, like Gecko) Chrome/113.0.0.0 Safari/537.36" version="21.2.3" etag="6XVKrqdtCHioUw7L_9lW" type="github">
  <diagram name="Page-1" id="TEPiy4266Brz4tdd0Vc-">
    <mxGraphModel>
      <root>
        <mxCell id="0" />
        <mxCell id="1" parent="0" />
      </root>
    </mxGraphModel>
  </diagram>
</mxfile>
